<svg xmlns="http://www.w3.org/2000/svg" xmlns:xlink="http://www.w3.org/1999/xlink" width="181.727" height="191.23" viewBox="0 0 181.727 191.23">
  <defs>
    <style>
      .cls-1 {
        fill: #0080ff;
      }

      .cls-2 {
        filter: url(#Caminho_19);
      }
    </style>
    <filter id="Caminho_19" x="0" y="0" width="181.727" height="191.23" filterUnits="userSpaceOnUse">
      <feOffset input="SourceAlpha"/>
      <feGaussianBlur stdDeviation="17.5" result="blur"/>
      <feFlood flood-color="#0080ff" flood-opacity="0.302"/>
      <feComposite operator="in" in2="blur"/>
      <feComposite in="SourceGraphic"/>
    </filter>
  </defs>
  <g id="Camada_2" data-name="Camada 2" transform="translate(52.5 52.5)">
    <g id="Layer_1" data-name="Layer 1" transform="translate(0 0)">
      <g class="cls-2" transform="matrix(1, 0, 0, 1, -52.5, -52.5)">
        <path id="Caminho_19-2" data-name="Caminho 19" class="cls-1" d="M62.292,57.468a14.22,14.22,0,0,0-8.736,3.045L28.575,45.384a16.149,16.149,0,0,0,.208-2.364,16.13,16.13,0,0,0-.208-2.345l24.98-14.92a14.22,14.22,0,0,0,8.736,2.988A14.372,14.372,0,1,0,47.939,14.372a13.69,13.69,0,0,0,.208,2.345l-25,15a14.372,14.372,0,1,0,0,22.692l25,15a13.919,13.919,0,0,0-.208,2.458A14.372,14.372,0,1,0,62.292,57.487Z" transform="translate(52.54 52.5)"/>
      </g>
    </g>
  </g>
</svg>
