<svg xmlns="http://www.w3.org/2000/svg" xmlns:xlink="http://www.w3.org/1999/xlink" width="182.625" height="191.229" viewBox="0 0 182.625 191.229">
  <defs>
    <filter id="Caminho_20" x="0" y="0" width="182.625" height="191.229" filterUnits="userSpaceOnUse">
      <feOffset input="SourceAlpha"/>
      <feGaussianBlur stdDeviation="17.5" result="blur"/>
      <feFlood flood-color="#007fff" flood-opacity="0.302"/>
      <feComposite operator="in" in2="blur"/>
      <feComposite in="SourceGraphic"/>
    </filter>
  </defs>
  <g id="Camada_2" data-name="Camada 2" transform="translate(52.492 52.499)">
    <g id="Layer_1" data-name="Layer 1">
      <g id="_350._Repeat" data-name="350. Repeat">
        <g transform="matrix(1, 0, 0, 1, -52.49, -52.5)" filter="url(#Caminho_20)">
          <path id="Caminho_20-2" data-name="Caminho 20" d="M19.356,67.28a31.02,31.02,0,0,1,11.7-54.21v-8a38.807,38.807,0,0,0-17.9,67.148C19.413,78.03,23.292,70.271,19.356,67.28ZM64.133,13.7c-4.008-3.593-9.734,2.233-5.984,5.125a31.02,31.02,0,0,1-11.581,54.31v8A38.807,38.807,0,0,0,64.133,13.7ZM34.487,19.769l12.626-7.558a2.147,2.147,0,0,0,0-4.008L34.358.487c-1.818-1.1-3.307-.272-3.292,1.875l.072,15.532C31.137,20.041,32.64,20.871,34.487,19.769Zm8.761,46.695L30.508,74.18a2.147,2.147,0,0,0,0,4.008l12.64,7.558c1.832,1.1,3.335.258,3.35-1.875V68.339c.07-2.147-1.418-2.977-3.251-1.875Z" transform="translate(52.5 52.5)" fill="#258cd1"/>
        </g>
      </g>
    </g>
  </g>
</svg>
