<svg xmlns="http://www.w3.org/2000/svg" xmlns:xlink="http://www.w3.org/1999/xlink" width="208.767" height="190.54" viewBox="0 0 208.767 190.54">
  <defs>
    <style>
      .cls-1 {
        fill: #0080ff;
      }

      .cls-2 {
        filter: url(#Caminho_4);
      }
    </style>
    <filter id="Caminho_4" x="0" y="0" width="208.767" height="190.54" filterUnits="userSpaceOnUse">
      <feOffset input="SourceAlpha"/>
      <feGaussianBlur stdDeviation="17.5" result="blur"/>
      <feFlood flood-color="#0080ff" flood-opacity="0.302"/>
      <feComposite operator="in" in2="blur"/>
      <feComposite in="SourceGraphic"/>
    </filter>
  </defs>
  <g id="Camada_2" data-name="Camada 2" transform="translate(52.5 52.5)">
    <g id="Layer_1" data-name="Layer 1" transform="translate(0 0)">
      <g class="cls-2" transform="matrix(1, 0, 0, 1, -52.5, -52.5)">
        <path id="Caminho_4-2" data-name="Caminho 4" class="cls-1" d="M94.116,28.167a5.882,5.882,0,1,0,4.178,1.741A5.865,5.865,0,0,0,94.116,28.167Zm-84.449,0a5.882,5.882,0,1,0,4.167,1.747,5.865,5.865,0,0,0-4.167-1.747Zm67.058-10.69a8.73,8.73,0,1,0,6.19,2.557A8.747,8.747,0,0,0,76.725,17.476Zm27.041,53.162H93.775V52.31a17.05,17.05,0,0,0-2.421-8.627,9.514,9.514,0,0,1,12.412,9.173ZM27.127,17.476a8.747,8.747,0,1,0,8.678,8.747,8.747,8.747,0,0,0-8.678-8.747ZM9.667,43.239a9.7,9.7,0,0,1,2.711.443A16.914,16.914,0,0,0,9.957,52.31V70.638H0V52.855a9.667,9.667,0,0,1,9.667-9.616ZM51.883,0A12.941,12.941,0,1,0,64.79,12.924,12.941,12.941,0,0,0,51.883,0ZM90.6,77.458H75.259V49.565A23,23,0,0,0,72.6,38.959a13.794,13.794,0,0,1,3.939-.631A13.981,13.981,0,0,1,90.519,52.31Zm-62.2-27.894V77.458H13.163V52.31A13.981,13.981,0,0,1,27.144,38.329a13.367,13.367,0,0,1,3.9.631,23.188,23.188,0,0,0-2.643,10.605ZM31.611,85.54H72.139V49.565a20.273,20.273,0,1,0-40.528,0Z" transform="translate(52.5 52.5)"/>
      </g>
    </g>
  </g>
</svg>
